<svg width="284" height="219" viewBox="0 0 284 219" fill="none" xmlns="http://www.w3.org/2000/svg">
<path d="M55.6048 33.6886C68.4609 16.2688 90.166 2.41095 107.307 0.63002C114.821 -0.0934906 120.722 1.01959 126.677 4.02492C130.628 5.97281 132.465 7.30852 136.973 11.5382C138.973 13.3847 139.528 14.2282 140.034 15.0514C140.925 16.5 142.925 20 142.925 24.5C142.925 22.3275 144.264 16.9487 145.124 14.9423C145.274 14.5928 145.501 14.2849 145.747 13.9953L148.196 11.1181C148.431 10.8421 148.689 10.5824 148.965 10.3479C156.729 3.76515 162.971 1.17877 172.757 0.741333C187.783 0.0178223 206.316 8.75552 221.231 23.6708C229.246 31.6294 234.533 39.3096 240.989 52.3327C250.116 70.6429 255.904 86.6156 263.751 115.5C270.43 140.044 273.825 148.225 279.613 153.901C283.62 157.797 284.121 159.189 283.675 165.199C283.23 171.265 280.28 176.163 275.995 177.944C274.938 178.389 271.988 178.946 269.372 179.113C264.864 179.502 264.252 179.391 258.297 177.387C254.846 176.274 250.617 174.605 248.836 173.714C237.761 168.093 225.127 155.404 214.664 139.431C203.2 121.9 195.964 107.208 183.387 75.7074C175.261 55.505 172.089 49.216 167.414 44.3741C161.294 39.0314 161.294 39.0313 152.612 48.6039C148.716 52.8336 144.987 56.6737 144.319 57.1746C143.095 57.9537 142.872 57.9538 141.537 56.952C140.702 56.3398 136.917 52.4996 133.133 48.3812C129.348 44.2628 125.898 40.8679 125.453 40.7566C124.228 40.4227 122 43.2054 119.663 46.656C116.49 51.3866 112.706 59.1781 108.087 70.6985C93.1157 107.764 82.2631 128.189 66.7913 148.058C62.1164 154.124 52.5438 163.752 47.535 167.481C41.8583 171.711 32.5084 176.163 25.162 178.111C19.2627 179.669 18.6505 179.725 13.5303 179.224C8.85538 178.779 7.79795 178.501 5.85006 177.109C2.45516 174.66 0.395958 170.264 0.0620335 164.865C-0.271891 159.411 0.674228 157.074 4.57002 153.567C10.3024 148.392 12.9181 142.214 20.7654 114.888C29.4474 84.6677 33.0093 74.7056 40.8565 58.7329C46.1993 47.8247 50.3733 40.7566 55.6048 33.6886Z" fill="white" style="fill:white;fill-opacity:1;"/>
<path fill-rule="evenodd" clip-rule="evenodd" d="M214.94 162.5C214.775 162.933 214.608 163.37 214.442 163.808C212.995 167.481 210.769 172.267 209.434 174.493C203.479 184.066 190.734 192.97 178.601 195.976C173.481 197.256 172.368 197.311 147.157 197.478C109.479 197.757 107.921 197.478 91.2243 188.073C85.4363 184.845 79.5926 179.001 76.476 173.38C75.2516 171.265 72.9698 166.535 71.3001 162.806C64.3402 169.851 46.658 180.768 38.6868 185.346C39.0207 185.346 40.5791 185.735 42.1374 186.181L42.2048 186.202C44.9766 187.071 45.0314 187.088 45.0314 189.242C45.0314 190.967 44.8088 191.468 44.0853 191.468C43.2505 191.468 43.2505 191.523 44.0296 192.136C44.5305 192.581 45.3097 194.974 45.8662 197.868C49.0385 214.397 54.8822 217.959 72.1349 213.896L78.4795 212.394L83.5997 213.618C90.1112 215.176 92.1704 215.176 97.9584 213.451C103.246 211.837 104.359 212.004 107.976 214.898C112.651 218.627 116.547 218.961 125.229 216.568C128.401 215.677 132.575 214.62 134.523 214.23C139.365 213.34 147.101 213.896 153.557 215.677C165.912 219.017 168.083 218.905 174.427 214.564C176.486 213.173 178.657 212.06 179.38 212.06C180.048 212.06 182.72 212.672 185.28 213.451C190.901 215.121 192.737 215.176 197.969 213.729C203.089 212.282 205.927 212.338 211.604 213.841C214.943 214.787 217.726 215.121 222.067 215.121C227.633 215.121 228.078 215.009 230.638 213.451C234.311 211.169 236.537 206.995 238.596 198.425C239.125 196.364 239.707 190.999 239.932 188.574L240.099 186.181L246.499 184.4C240.126 180.933 224.892 171.7 214.94 162.5ZM253.142 182.581C253.139 182.581 253.137 182.582 253.134 182.583L253.142 182.581Z" fill="white" style="fill:white;fill-opacity:1;"/>
<mask id="path-3-outside-1_963_698" maskUnits="userSpaceOnUse" x="96.5635" y="136.047" width="51" height="35" fill="black">
<rect fill="white" x="96.5635" y="136.047" width="51" height="35"/>
<path fill-rule="evenodd" clip-rule="evenodd" d="M100.227 168.857C99.3832 169.468 98.2296 168.554 98.6546 167.602L104.7 154.068C104.751 153.955 104.817 153.857 104.905 153.771C110.576 148.209 126.189 137.421 144.998 137.047C145.55 137.036 146 137.485 146 138.037V146.979C146 147.849 144.855 148.168 144.406 147.422V147.422C144.044 146.821 143.153 146.884 142.879 147.53L141.611 150.522C141.468 150.858 141.153 151.089 140.79 151.13C136.752 151.582 132.737 152.522 128.848 153.78C128.345 153.942 127.8 153.693 127.6 153.204L126.71 151.019C126.348 150.129 125.062 150.213 124.817 151.141L123.749 155.194C123.668 155.5 123.448 155.749 123.156 155.869C119.689 157.287 116.374 158.906 113.291 160.587C112.764 160.875 112.101 160.643 111.875 160.087L110.734 157.286C110.371 156.396 109.085 156.479 108.841 157.408L107.136 163.877C107.071 164.122 106.915 164.334 106.701 164.469C104.285 165.998 102.108 167.494 100.227 168.857Z"/>
</mask>
<path fill-rule="evenodd" clip-rule="evenodd" d="M100.227 168.857C99.3832 169.468 98.2296 168.554 98.6546 167.602L104.7 154.068C104.751 153.955 104.817 153.857 104.905 153.771C110.576 148.209 126.189 137.421 144.998 137.047C145.55 137.036 146 137.485 146 138.037V146.979C146 147.849 144.855 148.168 144.406 147.422V147.422C144.044 146.821 143.153 146.884 142.879 147.53L141.611 150.522C141.468 150.858 141.153 151.089 140.79 151.13C136.752 151.582 132.737 152.522 128.848 153.78C128.345 153.942 127.8 153.693 127.6 153.204L126.71 151.019C126.348 150.129 125.062 150.213 124.817 151.141L123.749 155.194C123.668 155.5 123.448 155.749 123.156 155.869C119.689 157.287 116.374 158.906 113.291 160.587C112.764 160.875 112.101 160.643 111.875 160.087L110.734 157.286C110.371 156.396 109.085 156.479 108.841 157.408L107.136 163.877C107.071 164.122 106.915 164.334 106.701 164.469C104.285 165.998 102.108 167.494 100.227 168.857Z" fill="white" style="fill:white;fill-opacity:1;"/>
<path d="M107.136 163.877L108.103 164.132L107.136 163.877ZM106.701 164.469L107.236 165.314L106.701 164.469ZM110.734 157.286L109.808 157.663L110.734 157.286ZM108.841 157.408L107.874 157.153L108.841 157.408ZM113.291 160.587L112.812 159.709L113.291 160.587ZM111.875 160.087L110.948 160.464L111.875 160.087ZM123.749 155.194L122.782 154.94L123.749 155.194ZM123.156 155.869L123.535 156.794L123.156 155.869ZM124.817 151.141L123.85 150.886L124.817 151.141ZM128.848 153.78L128.54 152.828L128.848 153.78ZM127.6 153.204L126.674 153.581L127.6 153.204ZM141.611 150.522L142.532 150.912L141.611 150.522ZM140.79 151.13L140.901 152.124L140.79 151.13ZM142.879 147.53L141.959 147.14L142.879 147.53ZM100.227 168.857L99.6401 168.047L100.227 168.857ZM104.7 154.068L103.787 153.66L104.7 154.068ZM104.905 153.771L104.205 153.057L104.905 153.771ZM103.787 153.66L97.7415 167.194L99.5676 168.01L105.613 154.476L103.787 153.66ZM144.978 136.047C125.834 136.428 109.99 147.382 104.205 153.057L105.605 154.485C111.161 149.035 126.545 138.414 145.018 138.047L144.978 136.047ZM147 146.979V138.037H145V146.979H147ZM141.959 147.14L140.69 150.131L142.532 150.912L143.8 147.921L141.959 147.14ZM129.156 154.731C132.993 153.49 136.941 152.567 140.901 152.124L140.679 150.136C136.562 150.597 132.481 151.554 128.54 152.828L129.156 154.731ZM125.784 151.396L126.674 153.581L128.526 152.827L127.636 150.642L125.784 151.396ZM124.716 155.449L125.784 151.396L123.85 150.886L122.782 154.94L124.716 155.449ZM113.77 161.465C116.826 159.799 120.108 158.197 123.535 156.794L122.777 154.943C119.271 156.378 115.923 158.013 112.812 159.709L113.77 161.465ZM109.808 157.663L110.948 160.464L112.801 159.709L111.66 156.908L109.808 157.663ZM108.103 164.132L109.808 157.663L107.874 157.153L106.169 163.622L108.103 164.132ZM100.814 169.666C102.679 168.314 104.84 166.831 107.236 165.314L106.166 163.624C103.731 165.165 101.536 166.673 99.6401 168.047L100.814 169.666ZM106.169 163.622C106.169 163.621 106.169 163.623 106.166 163.624L107.236 165.314C107.662 165.044 107.973 164.623 108.103 164.132L106.169 163.622ZM111.66 156.908C110.935 155.129 108.363 155.296 107.874 157.153L109.808 157.663L109.808 157.663L111.66 156.908ZM112.812 159.709C112.81 159.711 112.809 159.711 112.809 159.711C112.808 159.711 112.808 159.711 112.808 159.711C112.807 159.711 112.805 159.711 112.802 159.71C112.8 159.709 112.799 159.709 112.8 159.709C112.8 159.71 112.801 159.71 112.801 159.711C112.802 159.711 112.801 159.711 112.801 159.709L110.948 160.464C111.403 161.579 112.725 162.035 113.77 161.465L112.812 159.709ZM122.782 154.94C122.782 154.94 122.782 154.94 122.782 154.939C122.782 154.939 122.782 154.939 122.782 154.939C122.782 154.939 122.782 154.94 122.781 154.94C122.781 154.941 122.779 154.942 122.777 154.943L123.535 156.794C124.114 156.557 124.555 156.061 124.716 155.449L122.782 154.94ZM127.636 150.642C126.912 148.863 124.34 149.029 123.85 150.886L125.784 151.396L125.784 151.396L127.636 150.642ZM128.54 152.828C128.537 152.829 128.535 152.829 128.534 152.829C128.532 152.829 128.53 152.829 128.528 152.828C128.526 152.827 128.526 152.826 128.526 152.827C128.526 152.827 128.526 152.827 128.527 152.827C128.527 152.828 128.527 152.828 128.526 152.827L126.674 153.581C127.074 154.563 128.162 155.052 129.156 154.731L128.54 152.828ZM140.69 150.131C140.69 150.132 140.69 150.132 140.69 150.131C140.69 150.131 140.69 150.131 140.69 150.131C140.69 150.131 140.69 150.132 140.689 150.133C140.687 150.134 140.684 150.136 140.679 150.136L140.901 152.124C141.617 152.044 142.245 151.587 142.532 150.912L140.69 150.131ZM145.262 146.906C144.479 145.606 142.551 145.742 141.959 147.14L143.8 147.921C143.793 147.938 143.775 147.963 143.747 147.982C143.723 147.998 143.699 148.005 143.68 148.006C143.661 148.008 143.637 148.004 143.61 147.991C143.58 147.977 143.559 147.954 143.549 147.938L145.262 146.906ZM145 146.979C145 146.966 145.008 146.927 145.039 146.889C145.064 146.859 145.089 146.847 145.104 146.843C145.119 146.839 145.146 146.836 145.183 146.849C145.229 146.865 145.256 146.895 145.262 146.906L143.549 147.938C144.521 149.552 147 148.863 147 146.979H145ZM145.018 138.047C145.018 138.047 145.016 138.047 145.014 138.046C145.012 138.046 145.01 138.045 145.008 138.045C145.005 138.043 145.003 138.042 145.003 138.041C145.002 138.041 145.002 138.04 145.001 138.039C145.001 138.038 145.001 138.038 145 138.037C145 138.036 145 138.036 145 138.037H147C147 136.935 146.1 136.025 144.978 136.047L145.018 138.047ZM97.7415 167.194C96.8788 169.126 99.1823 170.849 100.814 169.666L99.6401 168.047C99.6276 168.056 99.6232 168.056 99.6265 168.055C99.6275 168.055 99.6288 168.055 99.6301 168.055C99.6314 168.055 99.632 168.055 99.6318 168.055C99.6293 168.055 99.6106 168.051 99.5876 168.033C99.5646 168.015 99.5607 168 99.5619 168.004C99.5629 168.008 99.5638 168.013 99.5634 168.019C99.563 168.026 99.5617 168.023 99.5676 168.01L97.7415 167.194ZM105.613 154.476C105.616 154.47 105.616 154.471 105.613 154.475C105.612 154.477 105.611 154.478 105.609 154.48C105.607 154.482 105.606 154.484 105.605 154.485L104.205 153.057C104.02 153.238 103.885 153.442 103.787 153.66L105.613 154.476Z" fill="white" style="fill:white;fill-opacity:1;" mask="url(#path-3-outside-1_963_698)"/>
<mask id="path-5-outside-2_963_698" maskUnits="userSpaceOnUse" x="141.007" y="136.047" width="51" height="35" fill="black">
<rect fill="white" x="141.007" y="136.047" width="51" height="35"/>
<path fill-rule="evenodd" clip-rule="evenodd" d="M188.343 168.857C189.187 169.468 190.341 168.554 189.916 167.602L183.87 154.068C183.82 153.955 183.754 153.857 183.666 153.771C177.995 148.209 162.381 137.421 143.572 137.047C143.02 137.036 142.57 137.485 142.57 138.037V146.979C142.57 147.849 143.715 148.168 144.164 147.422V147.422C144.526 146.821 145.417 146.884 145.691 147.53L146.959 150.522C147.102 150.858 147.417 151.089 147.78 151.13C151.819 151.582 155.833 152.522 159.722 153.78C160.225 153.942 160.771 153.693 160.97 153.204L161.86 151.019C162.222 150.129 163.508 150.213 163.753 151.141L164.821 155.194C164.902 155.5 165.122 155.749 165.414 155.869C168.881 157.287 172.196 158.906 175.279 160.587C175.807 160.875 176.469 160.643 176.696 160.087L177.837 157.286C178.199 156.396 179.485 156.479 179.73 157.408L181.435 163.877C181.499 164.122 181.655 164.334 181.869 164.469C184.285 165.998 186.463 167.494 188.343 168.857Z"/>
</mask>
<path fill-rule="evenodd" clip-rule="evenodd" d="M188.343 168.857C189.187 169.468 190.341 168.554 189.916 167.602L183.87 154.068C183.82 153.955 183.754 153.857 183.666 153.771C177.995 148.209 162.381 137.421 143.572 137.047C143.02 137.036 142.57 137.485 142.57 138.037V146.979C142.57 147.849 143.715 148.168 144.164 147.422V147.422C144.526 146.821 145.417 146.884 145.691 147.53L146.959 150.522C147.102 150.858 147.417 151.089 147.78 151.13C151.819 151.582 155.833 152.522 159.722 153.78C160.225 153.942 160.771 153.693 160.97 153.204L161.86 151.019C162.222 150.129 163.508 150.213 163.753 151.141L164.821 155.194C164.902 155.5 165.122 155.749 165.414 155.869C168.881 157.287 172.196 158.906 175.279 160.587C175.807 160.875 176.469 160.643 176.696 160.087L177.837 157.286C178.199 156.396 179.485 156.479 179.73 157.408L181.435 163.877C181.499 164.122 181.655 164.334 181.869 164.469C184.285 165.998 186.463 167.494 188.343 168.857Z" fill="white" style="fill:white;fill-opacity:1;"/>
<path d="M181.435 163.877L180.468 164.132L181.435 163.877ZM181.869 164.469L182.404 163.624L181.869 164.469ZM177.837 157.286L176.911 156.908L177.837 157.286ZM175.279 160.587L175.758 159.709L175.279 160.587ZM164.821 155.194L165.788 154.94L164.821 155.194ZM165.414 155.869L165.793 154.943L165.414 155.869ZM163.753 151.141L164.72 150.886L163.753 151.141ZM159.722 153.78L159.415 154.731L159.722 153.78ZM160.97 153.204L161.896 153.581L160.97 153.204ZM146.959 150.522L146.039 150.912L146.959 150.522ZM147.78 151.13L147.891 150.136L147.78 151.13ZM145.691 147.53L146.612 147.14L145.691 147.53ZM188.343 168.857L188.93 168.047L188.343 168.857ZM183.87 154.068L184.783 153.66L183.87 154.068ZM183.666 153.771L184.366 153.057L183.666 153.771ZM184.783 153.66L190.829 167.194L189.003 168.01L182.957 154.476L184.783 153.66ZM143.592 136.047C162.736 136.428 178.58 147.382 184.366 153.057L182.965 154.485C177.409 149.035 162.025 138.414 143.552 138.047L143.592 136.047ZM141.57 146.979V138.037H143.57V146.979H141.57ZM146.612 147.14L147.88 150.132L146.039 150.912L144.77 147.921L146.612 147.14ZM159.415 154.731C155.577 153.49 151.629 152.567 147.669 152.124L147.891 150.136C152.008 150.597 156.089 151.554 160.03 152.828L159.415 154.731ZM162.786 151.396L161.896 153.581L160.044 152.827L160.934 150.642L162.786 151.396ZM163.854 155.449L162.786 151.396L164.72 150.886L165.788 154.94L163.854 155.449ZM174.8 161.465C171.744 159.799 168.463 158.197 165.036 156.794L165.793 154.943C169.299 156.378 172.648 158.013 175.758 159.709L174.8 161.465ZM178.763 157.663L177.622 160.464L175.77 159.709L176.911 156.908L178.763 157.663ZM180.468 164.132L178.763 157.663L180.697 157.153L182.402 163.622L180.468 164.132ZM187.757 169.666C185.891 168.314 183.731 166.831 181.335 165.314L182.404 163.624C184.839 165.165 187.034 166.673 188.93 168.047L187.757 169.666ZM182.402 163.622C182.401 163.621 182.402 163.623 182.404 163.624L181.335 165.314C180.908 165.044 180.597 164.623 180.468 164.132L182.402 163.622ZM176.911 156.908C177.635 155.129 180.207 155.296 180.697 157.153L178.763 157.663L178.763 157.663L176.911 156.908ZM175.758 159.709C175.76 159.711 175.762 159.711 175.762 159.711C175.762 159.711 175.762 159.711 175.763 159.711C175.763 159.711 175.765 159.711 175.768 159.71C175.77 159.709 175.771 159.709 175.77 159.709C175.77 159.71 175.769 159.71 175.769 159.711C175.769 159.711 175.769 159.711 175.77 159.709L177.622 160.464C177.168 161.579 175.846 162.035 174.8 161.465L175.758 159.709ZM165.788 154.94C165.788 154.94 165.788 154.94 165.788 154.939C165.788 154.939 165.788 154.939 165.788 154.939C165.788 154.939 165.789 154.94 165.789 154.94C165.79 154.941 165.791 154.942 165.793 154.943L165.036 156.794C164.456 156.557 164.016 156.061 163.854 155.449L165.788 154.94ZM160.934 150.642C161.659 148.863 164.231 149.029 164.72 150.886L162.786 151.396L162.786 151.396L160.934 150.642ZM160.03 152.828C160.034 152.829 160.035 152.829 160.037 152.829C160.038 152.829 160.04 152.829 160.042 152.828C160.044 152.827 160.045 152.826 160.044 152.827C160.044 152.827 160.044 152.827 160.044 152.827C160.043 152.828 160.044 152.828 160.044 152.827L161.896 153.581C161.496 154.563 160.408 155.052 159.415 154.731L160.03 152.828ZM147.88 150.132C147.88 150.132 147.88 150.132 147.88 150.131C147.88 150.131 147.88 150.131 147.88 150.131C147.88 150.131 147.88 150.132 147.881 150.133C147.883 150.134 147.887 150.136 147.891 150.136L147.669 152.124C146.953 152.044 146.325 151.587 146.039 150.912L147.88 150.132ZM143.308 146.906C144.091 145.606 146.019 145.742 146.612 147.14L144.77 147.921C144.778 147.938 144.795 147.963 144.823 147.982C144.848 147.998 144.871 148.005 144.89 148.006C144.909 148.008 144.933 148.004 144.96 147.991C144.99 147.977 145.011 147.954 145.021 147.938L143.308 146.906ZM143.57 146.979C143.57 146.966 143.562 146.927 143.532 146.889C143.507 146.859 143.482 146.847 143.467 146.843C143.452 146.839 143.424 146.836 143.387 146.849C143.342 146.865 143.314 146.895 143.308 146.906L145.021 147.938C144.049 149.552 141.57 148.863 141.57 146.979H143.57ZM143.552 138.047C143.552 138.047 143.554 138.047 143.556 138.046C143.558 138.046 143.56 138.045 143.562 138.045C143.566 138.043 143.567 138.042 143.568 138.041C143.568 138.041 143.569 138.04 143.569 138.039C143.569 138.038 143.57 138.038 143.57 138.037C143.57 138.036 143.57 138.036 143.57 138.037H141.57C141.57 136.935 142.47 136.025 143.592 136.047L143.552 138.047ZM190.829 167.194C191.692 169.126 189.388 170.849 187.757 169.666L188.93 168.047C188.943 168.056 188.947 168.056 188.944 168.055C188.943 168.055 188.942 168.055 188.94 168.055C188.939 168.055 188.938 168.055 188.939 168.055C188.941 168.055 188.96 168.051 188.983 168.033C189.006 168.015 189.01 168 189.008 168.004C189.007 168.008 189.007 168.013 189.007 168.019C189.007 168.026 189.009 168.023 189.003 168.01L190.829 167.194ZM182.957 154.476C182.955 154.47 182.954 154.471 182.957 154.475C182.958 154.477 182.96 154.478 182.961 154.48C182.963 154.482 182.964 154.484 182.965 154.485L184.366 153.057C184.55 153.238 184.686 153.442 184.783 153.66L182.957 154.476Z" fill="white" style="fill:white;fill-opacity:1;" mask="url(#path-5-outside-2_963_698)"/>
</svg>
