<svg width="284" height="219" viewBox="0 0 284 219" fill="none" xmlns="http://www.w3.org/2000/svg">
<path d="M55.6048 33.6886C68.4609 16.2688 90.166 2.41095 107.307 0.63002C114.821 -0.0934906 120.722 1.01959 126.677 4.02492C130.628 5.97281 132.465 7.30852 136.973 11.5382C138.973 13.3847 139.528 14.2282 140.034 15.0514C140.925 16.5 142.925 20 142.925 24.5C142.925 22.3275 144.264 16.9487 145.124 14.9423C145.274 14.5928 145.501 14.2849 145.747 13.9953L148.196 11.1181C148.431 10.8421 148.689 10.5824 148.965 10.3479C156.729 3.76515 162.971 1.17877 172.757 0.741333C187.783 0.0178223 206.316 8.75552 221.231 23.6708C229.246 31.6294 234.533 39.3096 240.989 52.3327C250.116 70.6429 255.904 86.6156 263.751 115.5C270.43 140.044 273.825 148.225 279.613 153.901C283.62 157.797 284.121 159.189 283.675 165.199C283.23 171.265 280.28 176.163 275.995 177.944C274.938 178.389 271.988 178.946 269.372 179.113C264.864 179.502 264.252 179.391 258.297 177.387C254.846 176.274 250.617 174.605 248.836 173.714C237.761 168.093 225.127 155.404 214.664 139.431C203.2 121.9 195.964 107.208 183.387 75.7074C175.261 55.505 172.089 49.216 167.414 44.3741C161.294 39.0314 161.294 39.0313 152.612 48.6039C148.716 52.8336 144.987 56.6737 144.319 57.1746C143.095 57.9537 142.872 57.9538 141.537 56.952C140.702 56.3398 136.917 52.4996 133.133 48.3812C129.348 44.2628 125.898 40.8679 125.453 40.7566C124.228 40.4227 122 43.2054 119.663 46.656C116.49 51.3866 112.706 59.1781 108.087 70.6985C93.1157 107.764 82.2631 128.189 66.7913 148.058C62.1164 154.124 52.5438 163.752 47.535 167.481C41.8583 171.711 32.5084 176.163 25.162 178.111C19.2627 179.669 18.6505 179.725 13.5303 179.224C8.85538 178.779 7.79795 178.501 5.85006 177.109C2.45516 174.66 0.395958 170.264 0.0620335 164.865C-0.271891 159.411 0.674228 157.074 4.57002 153.567C10.3024 148.392 12.9181 142.214 20.7654 114.888C29.4474 84.6677 33.0093 74.7056 40.8565 58.7329C46.1993 47.8247 50.3733 40.7566 55.6048 33.6886Z" fill="white" style="fill:white;fill-opacity:1;"/>
<path d="M214.442 163.808C215.834 160.135 217.281 156.461 217.615 155.627C218.004 154.847 218.45 154.18 218.617 154.18C218.784 154.235 220.064 155.627 221.455 157.296C225.295 162.082 234.923 171.043 239.097 173.77C243.216 176.497 247.334 178.723 252.065 180.671C254.513 181.728 254.903 182.062 254.013 182.341C253.4 182.508 250.005 183.454 246.499 184.4L240.099 186.181L239.932 188.574C239.707 190.999 239.125 196.364 238.596 198.425C236.537 206.995 234.311 211.169 230.638 213.451C228.078 215.009 227.633 215.121 222.067 215.121C217.726 215.121 214.943 214.787 211.604 213.841C205.927 212.338 203.089 212.282 197.969 213.729C192.737 215.176 190.901 215.121 185.28 213.451C182.72 212.672 180.048 212.06 179.38 212.06C178.657 212.06 176.486 213.173 174.427 214.564C168.083 218.905 165.912 219.017 153.557 215.677C147.101 213.896 139.365 213.34 134.523 214.23C132.575 214.62 128.401 215.677 125.229 216.568C116.547 218.961 112.651 218.627 107.976 214.898C104.359 212.004 103.246 211.837 97.9584 213.451C92.1704 215.176 90.1112 215.176 83.5997 213.618L78.4795 212.394L72.1349 213.896C54.8822 217.959 49.0385 214.397 45.8662 197.868C45.3097 194.974 44.5305 192.581 44.0296 192.136C43.2505 191.523 43.2505 191.468 44.0853 191.468C44.8088 191.468 45.0314 190.967 45.0314 189.242C45.0314 187.088 44.9766 187.071 42.2048 186.202L42.1374 186.181C40.5791 185.735 39.0207 185.346 38.6868 185.346C37.4624 185.346 29.4482 182.953 29.4482 182.619C29.4482 182.396 30.8952 181.784 32.6762 181.227C38.4086 179.391 46.0332 175.106 53.1012 169.763C54.3256 168.817 58.1658 165.255 61.5607 161.86C65.0112 158.465 67.9609 155.738 68.0722 155.905C68.1835 156.016 69.6862 159.133 71.3001 162.806C72.9698 166.535 75.2516 171.265 76.476 173.38C79.5926 179.001 85.4363 184.845 91.2243 188.073C107.921 197.478 109.479 197.757 147.157 197.478C172.368 197.311 173.481 197.256 178.601 195.976C190.734 192.97 203.479 184.066 209.434 174.493C210.769 172.267 212.995 167.481 214.442 163.808Z" fill="white" style="fill:white;fill-opacity:1;"/>
<path d="M145.001 149.23C145.143 146.729 144.357 143.939 143.86 141.515C143.813 141.289 143.391 138.606 143.253 138.756C142.869 139.174 142.749 141.188 142.654 141.731C142.291 143.81 141.91 145.902 141.67 148.007C141.425 150.15 140.952 152.223 140.746 154.376C140.53 156.622 140.803 149.855 140.838 147.595C140.852 146.728 141.698 143.138 141.207 142.295C141.101 142.115 139.985 141.645 139.772 141.63C138.64 141.551 137.802 144.915 137.55 145.91C137.216 147.229 136.655 148.63 136.465 149.964C136.235 151.577 136.497 146.355 136.553 145.772C136.762 143.589 137.846 137.122 137.489 139.277C136.853 143.112 135.672 147.115 134.508 150.756C134.129 151.94 133.372 154.134 133.266 151.349C133.207 149.779 133.108 148.182 133.093 146.611C133.087 145.931 133.445 144.589 133.209 143.952C133.083 143.613 131.811 146.649 131.75 146.808C130.914 148.988 130.101 151.19 129.308 153.393C129.22 153.636 128.379 156.461 128.362 155.258C128.329 152.893 128.57 150.55 128.794 148.205C128.906 147.04 129.158 143.996 128.147 146.779C127.598 148.289 126.258 154.535 124.561 154.755C122.93 154.966 126.415 137.337 121.834 152.128C121.687 152.603 119.756 158.348 119.622 157.386C119.26 154.777 119.682 151.676 119.934 149.043C119.947 148.906 117.937 153.893 117.47 154.945C117.237 155.469 114.812 160.059 114.744 157.393C114.724 156.593 115.005 149.34 114.718 149.3C113.316 149.107 112.946 155.425 111.675 155.25C111.262 155.193 112.256 148.528 112.233 147.429C112.209 146.295 111.399 148.384 111.364 148.498C110.816 150.266 110.475 152.12 109.907 153.88C108.974 156.771 109.098 155.124 109.18 153.101C109.362 148.658 108.795 153.964 108.504 155.428C108.16 157.161 107.081 160.28 106.848 156.537C106.756 155.072 106.954 153.607 107.094 152.155C107.186 151.191 106.909 154.083 106.816 155.047" stroke="white" style="stroke:white;stroke-opacity:1;" stroke-width="3" stroke-linecap="round"/>
<path d="M99 158.553C99.0811 161.124 99.9482 163.86 100.55 166.263C100.606 166.487 101.166 169.165 101.267 168.992C101.55 168.511 101.49 166.441 101.526 165.873C101.66 163.702 101.809 161.514 101.841 159.333C101.874 157.112 102.099 154.931 102.099 152.706C102.099 150.384 102.409 157.325 102.559 159.636C102.616 160.522 102.202 164.303 102.673 165.094C102.774 165.263 103.731 165.585 103.908 165.57C104.846 165.491 105.271 161.942 105.4 160.892C105.571 159.499 105.923 157.991 105.974 156.604C106.036 154.926 106.232 160.29 106.232 160.892C106.232 163.148 105.85 169.898 105.974 167.649C106.195 163.648 106.852 159.399 107.524 155.521C107.742 154.26 108.192 151.915 108.499 154.742C108.672 156.334 108.88 157.95 109.016 159.549C109.075 160.242 108.886 161.662 109.131 162.278C109.261 162.607 110.069 159.331 110.106 159.16C110.623 156.819 111.119 154.458 111.599 152.099C111.652 151.839 112.121 148.839 112.23 150.064C112.445 152.472 112.431 154.895 112.431 157.319C112.431 158.524 112.464 161.664 113.077 158.683C113.41 157.065 114.021 150.505 115.401 150.042C116.728 149.597 115.249 168.071 117.855 152.338C117.939 151.833 119.075 145.701 119.261 146.663C119.766 149.273 119.663 152.496 119.663 155.218C119.663 155.359 120.926 149.989 121.227 148.851C121.378 148.283 123.013 143.26 123.279 145.97C123.359 146.783 123.7 154.222 123.939 154.222C125.109 154.222 124.916 147.725 125.977 147.725C126.321 147.725 126.029 154.662 126.135 155.781C126.244 156.934 126.746 154.689 126.766 154.568C127.078 152.687 127.212 150.749 127.541 148.872C128.081 145.792 128.109 147.49 128.201 149.566C128.402 154.123 128.45 148.631 128.574 147.097C128.721 145.28 129.364 141.947 129.851 145.732C130.042 147.214 129.995 148.736 129.995 150.237C129.995 151.233 129.995 148.244 129.995 147.248" stroke="white" style="stroke:white;stroke-opacity:1;" stroke-width="3" stroke-linecap="round"/>
<path d="M143.569 149.23C143.428 146.729 144.213 143.939 144.711 141.515C144.757 141.289 145.18 138.606 145.317 138.756C145.701 139.174 145.821 141.188 145.916 141.731C146.279 143.81 146.661 145.902 146.901 148.007C147.146 150.15 147.618 152.223 147.825 154.376C148.04 156.622 147.768 149.855 147.732 147.595C147.719 146.728 146.872 143.138 147.364 142.295C147.469 142.115 148.586 141.645 148.798 141.63C149.93 141.551 150.768 144.915 151.02 145.91C151.354 147.229 151.916 148.63 152.105 149.964C152.335 151.577 152.073 146.355 152.017 145.772C151.808 143.589 150.724 137.122 151.081 139.277C151.717 143.112 152.898 147.115 154.063 150.756C154.442 151.94 155.198 154.134 155.304 151.349C155.364 149.779 155.462 148.182 155.477 146.611C155.484 145.931 155.125 144.589 155.362 143.952C155.488 143.613 156.759 146.649 156.82 146.808C157.656 148.988 158.469 151.19 159.263 153.393C159.35 153.636 160.191 156.461 160.208 155.258C160.242 152.893 160.001 150.55 159.776 148.205C159.664 147.04 159.412 143.996 160.423 146.779C160.972 148.289 162.313 154.535 164.01 154.755C165.641 154.966 162.155 137.337 166.737 152.128C166.884 152.603 168.814 158.348 168.948 157.386C169.31 154.777 168.888 151.676 168.636 149.043C168.623 148.906 170.633 153.893 171.1 154.945C171.333 155.469 173.759 160.059 173.826 157.393C173.846 156.593 173.565 149.34 173.852 149.3C175.254 149.107 175.624 155.425 176.896 155.25C177.308 155.193 176.315 148.528 176.338 147.429C176.362 146.295 177.172 148.384 177.207 148.498C177.755 150.266 178.095 152.12 178.663 153.88C179.596 156.771 179.473 155.124 179.39 153.101C179.209 148.658 179.775 153.964 180.066 155.428C180.41 157.161 181.489 160.28 181.723 156.537C181.814 155.072 181.616 153.607 181.477 152.155C181.384 151.191 181.662 154.083 181.754 155.047" stroke="white" style="stroke:white;stroke-opacity:1;" stroke-width="3" stroke-linecap="round"/>
<path d="M189.57 158.553C189.489 161.124 188.622 163.86 188.021 166.263C187.964 166.487 187.405 169.165 187.303 168.992C187.02 168.511 187.08 166.441 187.045 165.873C186.91 163.702 186.761 161.514 186.729 159.333C186.697 157.112 186.471 154.931 186.471 152.706C186.471 150.384 186.161 157.325 186.012 159.636C185.954 160.522 186.368 164.303 185.897 165.094C185.796 165.263 184.839 165.585 184.663 165.57C183.724 165.491 183.299 161.942 183.17 160.892C183 159.499 182.648 157.991 182.596 156.604C182.535 154.926 182.338 160.29 182.338 160.892C182.338 163.148 182.721 169.898 182.596 167.649C182.376 163.648 181.719 159.399 181.047 155.521C180.828 154.26 180.378 151.915 180.071 154.742C179.898 156.334 179.691 157.95 179.554 159.549C179.495 160.242 179.685 161.662 179.44 162.278C179.309 162.607 178.502 159.331 178.464 159.16C177.947 156.819 177.451 154.458 176.972 152.099C176.919 151.839 176.449 148.839 176.34 150.064C176.126 152.472 176.139 154.895 176.139 157.319C176.139 158.524 176.106 161.664 175.494 158.683C175.161 157.065 174.549 150.505 173.169 150.042C171.842 149.597 173.321 168.071 170.715 152.338C170.632 151.833 169.495 145.701 169.309 146.663C168.805 149.273 168.907 152.496 168.907 155.218C168.907 155.359 167.645 149.989 167.343 148.851C167.193 148.283 165.557 143.26 165.291 145.97C165.211 146.783 164.871 154.222 164.631 154.222C163.461 154.222 163.655 147.725 162.593 147.725C162.249 147.725 162.541 154.662 162.436 155.781C162.326 156.934 161.824 154.689 161.804 154.568C161.493 152.687 161.358 150.749 161.029 148.872C160.489 145.792 160.461 147.49 160.369 149.566C160.168 154.123 160.12 148.631 159.996 147.097C159.849 145.28 159.207 141.947 158.719 145.732C158.528 147.214 158.576 148.736 158.576 150.237C158.576 151.233 158.576 148.244 158.576 147.248" stroke="white" style="stroke:white;stroke-opacity:1;" stroke-width="3" stroke-linecap="round"/>
</svg>
