<svg width="284" height="219" viewBox="0 0 284 219" fill="none" xmlns="http://www.w3.org/2000/svg">
<path d="M55.6048 33.6886C68.4609 16.2688 90.166 2.41095 107.307 0.63002C114.821 -0.0934906 120.722 1.01959 126.677 4.02492C130.628 5.97281 132.465 7.30852 136.973 11.5382C138.973 13.3847 139.528 14.2282 140.034 15.0514C140.925 16.5 142.925 20 142.925 24.5C142.925 22.3275 144.264 16.9487 145.124 14.9423C145.274 14.5928 145.501 14.2849 145.747 13.9953L148.196 11.1181C148.431 10.8421 148.689 10.5824 148.965 10.3479C156.729 3.76515 162.971 1.17877 172.757 0.741333C187.783 0.0178223 206.316 8.75552 221.231 23.6708C229.246 31.6294 234.533 39.3096 240.989 52.3327C250.116 70.6429 255.904 86.6156 263.751 115.5C270.43 140.044 273.825 148.225 279.613 153.901C283.62 157.797 284.121 159.189 283.675 165.199C283.23 171.265 280.28 176.163 275.995 177.944C274.938 178.389 271.988 178.946 269.372 179.113C264.864 179.502 264.252 179.391 258.297 177.387C254.846 176.274 250.617 174.605 248.836 173.714C237.761 168.093 225.127 155.404 214.664 139.431C203.2 121.9 195.964 107.208 183.387 75.7074C175.261 55.505 172.089 49.216 167.414 44.3741C161.294 39.0314 161.294 39.0313 152.612 48.6039C148.716 52.8336 144.987 56.6737 144.319 57.1746C143.095 57.9537 142.872 57.9538 141.537 56.952C140.702 56.3398 136.917 52.4996 133.133 48.3812C129.348 44.2628 125.898 40.8679 125.453 40.7566C124.228 40.4227 122 43.2054 119.663 46.656C116.49 51.3866 112.706 59.1781 108.087 70.6985C93.1157 107.764 82.2631 128.189 66.7913 148.058C62.1164 154.124 52.5438 163.752 47.535 167.481C41.8583 171.711 32.5084 176.163 25.162 178.111C19.2627 179.669 18.6505 179.725 13.5303 179.224C8.85538 178.779 7.79795 178.501 5.85006 177.109C2.45516 174.66 0.395958 170.264 0.0620335 164.865C-0.271891 159.411 0.674228 157.074 4.57002 153.567C10.3024 148.392 12.9181 142.214 20.7654 114.888C29.4474 84.6677 33.0093 74.7056 40.8565 58.7329C46.1993 47.8247 50.3733 40.7566 55.6048 33.6886Z" fill="white" style="fill:white;fill-opacity:1;"/>
<path fill-rule="evenodd" clip-rule="evenodd" d="M214.94 162.5C214.775 162.933 214.608 163.37 214.442 163.808C212.995 167.481 210.769 172.267 209.434 174.493C203.479 184.066 190.734 192.97 178.601 195.976C173.481 197.256 172.368 197.311 147.157 197.478C109.479 197.757 107.921 197.478 91.2243 188.073C85.4363 184.845 79.5926 179.001 76.476 173.38C75.2516 171.265 72.9698 166.535 71.3001 162.806C64.3402 169.851 46.658 180.768 38.6868 185.346C39.0207 185.346 40.5791 185.735 42.1374 186.181L42.2048 186.202C44.9766 187.071 45.0314 187.088 45.0314 189.242C45.0314 190.967 44.8088 191.468 44.0853 191.468C43.2505 191.468 43.2505 191.523 44.0296 192.136C44.5305 192.581 45.3097 194.974 45.8662 197.868C49.0385 214.397 54.8822 217.959 72.1349 213.896L78.4795 212.394L83.5997 213.618C90.1112 215.176 92.1704 215.176 97.9584 213.451C103.246 211.837 104.359 212.004 107.976 214.898C112.651 218.627 116.547 218.961 125.229 216.568C128.401 215.677 132.575 214.62 134.523 214.23C139.365 213.34 147.101 213.896 153.557 215.677C165.912 219.017 168.083 218.905 174.427 214.564C176.486 213.173 178.657 212.06 179.38 212.06C180.048 212.06 182.72 212.672 185.28 213.451C190.901 215.121 192.737 215.176 197.969 213.729C203.089 212.282 205.927 212.338 211.604 213.841C214.943 214.787 217.726 215.121 222.067 215.121C227.633 215.121 228.078 215.009 230.638 213.451C234.311 211.169 236.537 206.995 238.596 198.425C239.125 196.364 239.707 190.999 239.932 188.574L240.099 186.181L246.499 184.4C240.126 180.933 224.892 171.7 214.94 162.5ZM253.142 182.581C253.139 182.581 253.137 182.582 253.134 182.583L253.142 182.581Z" fill="white" style="fill:white;fill-opacity:1;"/>
<path fill-rule="evenodd" clip-rule="evenodd" d="M107.754 151.093L102.545 160.286C101.609 161.938 103.499 163.692 105.077 162.792C106.732 161.849 108.638 160.819 110.747 159.766C111.176 159.552 111.505 159.176 111.658 158.717L113.187 154.145L114.256 156.214C114.696 157.066 115.719 157.423 116.592 157.047C119.392 155.839 122.405 154.677 125.553 153.66C126.101 153.483 126.536 153.057 126.72 152.507L127.669 149.666L128.503 151.279C128.894 152.037 129.756 152.413 130.572 152.204C134.104 151.298 137.744 150.624 141.398 150.305C142.005 150.252 142.551 149.899 142.844 149.355L143.902 147.387C144.932 148.549 146.907 147.836 146.907 146.235V140.241C146.907 139.241 146.09 138.419 145.077 138.435C127.813 138.706 113.491 146.489 108.215 150.559C108.018 150.711 107.867 150.893 107.754 151.093Z" fill="white" style="fill:white;fill-opacity:1;"/>
<path fill-rule="evenodd" clip-rule="evenodd" d="M180.816 151.093L186.025 160.286C186.961 161.938 185.072 163.692 183.493 162.792C181.838 161.849 179.932 160.819 177.824 159.766C177.394 159.552 177.065 159.176 176.912 158.717L175.383 154.145L174.314 156.214C173.874 157.066 172.851 157.423 171.978 157.047C169.178 155.839 166.166 154.677 163.017 153.66C162.47 153.483 162.035 153.057 161.851 152.507L160.901 149.666L160.068 151.279C159.676 152.037 158.814 152.413 157.998 152.204C154.466 151.298 150.826 150.624 147.173 150.305C146.566 150.252 146.019 149.899 145.726 149.355L144.668 147.387C143.638 148.549 141.664 147.836 141.664 146.235V140.241C141.664 139.241 142.48 138.419 143.493 138.435C160.757 138.706 175.08 146.489 180.355 150.559C180.552 150.711 180.703 150.893 180.816 151.093Z" fill="white" style="fill:white;fill-opacity:1;"/>
</svg>
