<svg width="284" height="219" viewBox="0 0 284 219" fill="none" xmlns="http://www.w3.org/2000/svg">
<path d="M55.6048 33.6886C68.4609 16.2688 90.166 2.41095 107.307 0.63002C114.821 -0.0934906 120.722 1.01959 126.677 4.02492C130.628 5.97281 132.465 7.30852 136.973 11.5382C138.973 13.3847 139.528 14.2282 140.034 15.0514C140.925 16.5 142.925 20 142.925 24.5C142.925 22.3275 144.264 16.9487 145.124 14.9423C145.274 14.5928 145.501 14.2849 145.747 13.9953L148.196 11.1181C148.431 10.8421 148.689 10.5824 148.965 10.3479C156.729 3.76515 162.971 1.17877 172.757 0.741333C187.783 0.0178223 206.316 8.75552 221.231 23.6708C229.246 31.6294 234.533 39.3096 240.989 52.3327C250.116 70.6429 255.904 86.6156 263.751 115.5C270.43 140.044 273.825 148.225 279.613 153.901C283.62 157.797 284.121 159.189 283.675 165.199C283.23 171.265 280.28 176.163 275.995 177.944C274.938 178.389 271.988 178.946 269.372 179.113C264.864 179.502 264.252 179.391 258.297 177.387C254.846 176.274 250.617 174.605 248.836 173.714C237.761 168.093 225.127 155.404 214.664 139.431C203.2 121.9 195.964 107.208 183.387 75.7074C175.261 55.505 172.089 49.216 167.414 44.3741C161.294 39.0314 161.294 39.0313 152.612 48.6039C148.716 52.8336 144.987 56.6737 144.319 57.1746C143.095 57.9537 142.872 57.9538 141.537 56.952C140.702 56.3398 136.917 52.4996 133.133 48.3812C129.348 44.2628 125.898 40.8679 125.453 40.7566C124.228 40.4227 122 43.2054 119.663 46.656C116.49 51.3866 112.706 59.1781 108.087 70.6985C93.1157 107.764 82.2631 128.189 66.7913 148.058C62.1164 154.124 52.5438 163.752 47.535 167.481C41.8583 171.711 32.5084 176.163 25.162 178.111C19.2627 179.669 18.6505 179.725 13.5303 179.224C8.85538 178.779 7.79795 178.501 5.85006 177.109C2.45516 174.66 0.395958 170.264 0.0620335 164.865C-0.271891 159.411 0.674228 157.074 4.57002 153.567C10.3024 148.392 12.9181 142.214 20.7654 114.888C29.4474 84.6677 33.0093 74.7056 40.8565 58.7329C46.1993 47.8247 50.3733 40.7566 55.6048 33.6886Z" fill="white" style="fill:white;fill-opacity:1;"/>
<path fill-rule="evenodd" clip-rule="evenodd" d="M214.94 162.5C214.775 162.933 214.608 163.37 214.442 163.808C212.995 167.481 210.769 172.267 209.434 174.493C203.479 184.066 190.734 192.97 178.601 195.976C173.481 197.256 172.368 197.311 147.157 197.478C109.479 197.757 107.921 197.478 91.2243 188.073C85.4363 184.845 79.5926 179.001 76.476 173.38C75.2516 171.265 72.9698 166.535 71.3001 162.806C64.3402 169.851 46.658 180.768 38.6868 185.346C39.0207 185.346 40.5791 185.735 42.1374 186.181L42.2048 186.202C44.9766 187.071 45.0314 187.088 45.0314 189.242C45.0314 190.967 44.8088 191.468 44.0853 191.468C43.2505 191.468 43.2505 191.523 44.0296 192.136C44.5305 192.581 45.3097 194.974 45.8662 197.868C49.0385 214.397 54.8822 217.959 72.1349 213.896L78.4795 212.394L83.5997 213.618C90.1112 215.176 92.1704 215.176 97.9584 213.451C103.246 211.837 104.359 212.004 107.976 214.898C112.651 218.627 116.547 218.961 125.229 216.568C128.401 215.677 132.575 214.62 134.523 214.23C139.365 213.34 147.101 213.896 153.557 215.677C165.912 219.017 168.083 218.905 174.427 214.564C176.486 213.173 178.657 212.06 179.38 212.06C180.048 212.06 182.72 212.672 185.28 213.451C190.901 215.121 192.737 215.176 197.969 213.729C203.089 212.282 205.927 212.338 211.604 213.841C214.943 214.787 217.726 215.121 222.067 215.121C227.633 215.121 228.078 215.009 230.638 213.451C234.311 211.169 236.537 206.995 238.596 198.425C239.125 196.364 239.707 190.999 239.932 188.574L240.099 186.181L246.499 184.4C240.126 180.933 224.892 171.7 214.94 162.5ZM253.142 182.581C253.139 182.581 253.137 182.582 253.134 182.583L253.142 182.581Z" fill="white" style="fill:white;fill-opacity:1;"/>
<path d="M149.331 146.098C149.481 143.448 148.649 140.492 148.121 137.924C148.072 137.684 147.625 134.842 147.479 135.001C147.072 135.444 146.945 137.577 146.844 138.152C146.46 140.355 146.056 142.571 145.801 144.801C145.542 147.072 145.041 146.416 144.822 148.697C144.594 151.076 144.883 146.759 144.92 144.365C144.934 143.447 145.831 139.643 145.311 138.751C145.199 138.559 144.016 138.062 143.791 138.046C142.592 137.963 141.704 141.526 141.437 142.58C141.083 143.978 140.488 145.462 140.287 146.875C140.044 148.584 140.322 143.051 140.381 142.434C140.602 140.122 141.751 133.271 141.372 135.553C140.699 139.616 139.448 143.856 138.214 147.713C137.812 148.968 137.011 151.293 136.899 148.342C136.836 146.679 136.731 144.987 136.715 143.323C136.708 142.603 137.088 141.181 136.838 140.506C136.704 140.146 135.357 143.363 135.293 143.532C134.406 145.841 133.545 148.173 132.705 150.507C132.612 150.765 131.721 153.758 131.703 152.484C131.668 149.978 131.923 147.496 132.161 145.012C132.279 143.777 132.546 140.553 131.476 143.5C130.894 145.101 129.474 151.718 127.676 151.951C125.948 152.174 129.64 133.498 124.787 149.168C124.631 149.67 122.586 155.757 122.444 154.738C122.061 151.974 122.507 148.689 122.775 145.899C122.789 145.754 120.659 151.038 120.164 152.152C119.917 152.707 117.348 157.57 117.276 154.745C117.255 153.898 117.553 146.213 117.249 146.172C115.764 145.967 115.371 152.66 114.024 152.474C113.588 152.414 114.64 145.354 114.615 144.189C114.59 142.988 113.732 145.201 113.695 145.321C113.115 147.195 112.754 149.159 112.152 151.024C111.164 154.087 111.295 152.341 111.382 150.198C111.574 145.491 110.974 151.112 110.666 152.664C110.301 154.5 109.158 157.803 108.911 153.838C108.814 152.287 109.024 150.734 109.171 149.196C109.269 148.175 108.975 151.238 108.878 152.259" stroke="white" style="stroke:white;stroke-opacity:1;" stroke-width="3" stroke-linecap="round"/>
<path d="M102 155.717C102.089 158.494 99.0399 161.449 99.6997 164.044C99.7613 164.286 100.375 167.178 100.487 166.991C100.797 166.472 100.731 164.236 100.77 163.623C100.918 161.278 105.081 158.915 105.116 156.56C105.152 154.161 108.399 151.805 108.399 149.402C108.399 146.895 105.739 154.391 105.903 156.887C105.966 157.844 103.512 161.928 104.029 162.781C104.14 162.964 103.189 163.312 103.382 163.296C104.412 163.211 106.878 159.377 107.019 158.244C107.207 156.739 107.593 155.11 107.649 153.612C107.716 151.8 107.932 157.593 107.932 158.244C107.932 160.68 105.513 167.969 105.649 165.541C105.891 161.22 108.611 156.631 109.348 152.443C109.588 151.081 110.082 148.548 110.419 151.601C110.608 153.321 110.836 155.066 110.985 156.793C111.05 157.542 110.842 159.075 111.111 159.741C111.254 160.095 112.14 156.557 112.181 156.372C112.748 153.844 113.292 151.295 113.818 148.747C113.876 148.466 114.391 145.226 114.511 146.549C114.746 149.15 114.731 151.767 114.731 154.384C114.731 155.686 114.767 159.077 115.439 155.858C115.804 154.11 116.475 147.025 117.989 146.525C119.444 146.045 117.822 165.996 120.68 149.005C120.771 148.46 122.018 141.837 122.222 142.877C122.775 145.695 122.663 149.176 122.663 152.115C122.663 152.268 124.047 146.468 124.378 145.239C124.543 144.626 126.337 139.201 126.629 142.128C126.716 143.005 127.09 151.04 127.353 151.04C128.636 151.04 128.424 144.023 129.588 144.023C129.965 144.023 129.645 151.515 129.761 152.724C129.88 153.969 130.431 151.544 130.453 151.414C130.795 149.382 130.942 147.289 131.303 145.262C131.896 141.936 131.926 143.77 132.027 146.011C132.248 150.933 132.3 145.001 132.436 143.344C132.597 141.382 133.302 137.783 133.837 141.871C134.046 143.471 133.994 145.115 133.994 146.736C133.994 147.812 133.994 144.584 133.994 143.508" stroke="white" style="stroke:white;stroke-opacity:1;" stroke-width="3" stroke-linecap="round"/>
<path d="M139.239 146.098C139.09 143.448 139.922 140.492 140.449 137.924C140.498 137.684 140.946 134.842 141.092 135.001C141.498 135.444 141.626 137.577 141.726 138.152C142.111 140.355 142.515 142.571 142.769 144.801C143.029 147.072 143.53 146.416 143.748 148.697C143.976 151.076 143.688 146.759 143.65 144.365C143.636 143.447 142.739 139.643 143.26 138.751C143.371 138.559 144.554 138.062 144.779 138.046C145.979 137.963 146.867 141.526 147.133 142.58C147.487 143.978 148.082 145.462 148.283 146.875C148.526 148.584 148.249 143.051 148.19 142.434C147.968 140.122 146.82 133.271 147.198 135.553C147.871 139.616 149.123 143.856 150.357 147.713C150.758 148.968 151.56 151.293 151.672 148.342C151.735 146.679 151.839 144.987 151.855 143.323C151.862 142.603 151.482 141.181 151.733 140.506C151.866 140.146 153.213 143.363 153.278 143.532C154.164 145.841 155.025 148.173 155.865 150.507C155.958 150.765 156.849 153.758 156.867 152.484C156.902 149.978 156.647 147.496 156.409 145.012C156.291 143.777 156.024 140.553 157.095 143.5C157.676 145.101 159.097 151.718 160.894 151.951C162.622 152.174 158.93 133.498 163.783 149.168C163.939 149.67 165.984 155.757 166.126 154.738C166.51 151.974 166.063 148.689 165.796 145.899C165.782 145.754 167.912 151.038 168.406 152.152C168.653 152.707 171.223 157.57 171.294 154.745C171.315 153.898 171.017 146.213 171.321 146.172C172.807 145.967 173.199 152.66 174.546 152.474C174.982 152.414 173.93 145.354 173.955 144.189C173.98 142.988 174.838 145.201 174.875 145.321C175.456 147.195 175.817 149.159 176.419 151.024C177.407 154.087 177.276 152.341 177.188 150.198C176.996 145.491 177.596 151.112 177.904 152.664C178.269 154.5 179.412 157.803 179.659 153.838C179.756 152.287 179.547 150.734 179.399 149.196C179.301 148.175 179.595 151.238 179.693 152.259" stroke="white" style="stroke:white;stroke-opacity:1;" stroke-width="3" stroke-linecap="round"/>
<path d="M186.57 155.717C186.481 158.494 189.53 161.449 188.871 164.044C188.809 164.286 188.195 167.178 188.084 166.991C187.773 166.472 187.839 164.236 187.8 163.623C187.652 161.278 183.489 158.915 183.454 156.56C183.419 154.161 180.171 151.805 180.171 149.402C180.171 146.895 182.831 154.391 182.667 156.887C182.604 157.844 185.058 161.928 184.541 162.781C184.431 162.964 185.381 163.312 185.188 163.296C184.158 163.211 181.692 159.377 181.551 158.244C181.364 156.739 180.978 155.11 180.922 153.612C180.854 151.8 180.638 157.593 180.638 158.244C180.638 160.68 183.058 167.969 182.922 165.541C182.679 161.22 179.959 156.631 179.222 152.443C178.982 151.081 178.488 148.548 178.152 151.601C177.962 153.321 177.735 155.066 177.585 156.793C177.52 157.542 177.728 159.075 177.459 159.741C177.316 160.095 176.43 156.557 176.389 156.372C175.822 153.844 175.278 151.295 174.752 148.747C174.694 148.466 174.179 145.226 174.06 146.549C173.825 149.15 173.839 151.767 173.839 154.384C173.839 155.686 173.803 159.077 173.131 155.858C172.766 154.11 172.096 147.025 170.582 146.525C169.126 146.045 170.749 165.996 167.89 149.005C167.799 148.46 166.552 141.837 166.348 142.877C165.795 145.695 165.907 149.176 165.907 152.115C165.907 152.268 164.523 146.468 164.192 145.239C164.027 144.626 162.233 139.201 161.941 142.128C161.854 143.005 161.48 151.04 161.218 151.04C159.934 151.04 160.147 144.023 158.983 144.023C158.605 144.023 158.926 151.515 158.81 152.724C158.69 153.969 158.139 151.544 158.117 151.414C157.775 149.382 157.628 147.289 157.267 145.262C156.675 141.936 156.644 143.77 156.543 146.011C156.322 150.933 156.27 145.001 156.134 143.344C155.973 141.382 155.268 137.783 154.733 141.871C154.524 143.471 154.576 145.115 154.576 146.736C154.576 147.812 154.576 144.584 154.576 143.508" stroke="white" style="stroke:white;stroke-opacity:1;" stroke-width="3" stroke-linecap="round"/>
</svg>
