<svg width="284" height="219" viewBox="0 0 284 219" fill="none" xmlns="http://www.w3.org/2000/svg">
<path d="M55.6048 33.6886C68.4609 16.2688 90.166 2.41095 107.307 0.63002C114.821 -0.0934906 120.722 1.01959 126.677 4.02492C130.628 5.97281 132.465 7.30852 136.973 11.5382C138.973 13.3847 139.528 14.2282 140.034 15.0514C140.925 16.5 142.925 20 142.925 24.5C142.925 22.3275 144.264 16.9487 145.124 14.9423C145.274 14.5928 145.501 14.2849 145.747 13.9953L148.196 11.1181C148.431 10.8421 148.689 10.5824 148.965 10.3479C156.729 3.76515 162.971 1.17877 172.757 0.741333C187.783 0.0178223 206.316 8.75552 221.231 23.6708C229.246 31.6294 234.533 39.3096 240.989 52.3327C250.116 70.6429 255.904 86.6156 263.751 115.5C270.43 140.044 273.825 148.225 279.613 153.901C283.62 157.797 284.121 159.189 283.675 165.199C283.23 171.265 280.28 176.163 275.995 177.944C274.938 178.389 271.988 178.946 269.372 179.113C264.864 179.502 264.252 179.391 258.297 177.387C254.846 176.274 250.617 174.605 248.836 173.714C237.761 168.093 225.127 155.404 214.664 139.431C203.2 121.9 195.964 107.208 183.387 75.7074C175.261 55.505 172.089 49.216 167.414 44.3741C161.294 39.0314 161.294 39.0313 152.612 48.6039C148.716 52.8336 144.987 56.6737 144.319 57.1746C143.095 57.9537 142.872 57.9538 141.537 56.952C140.702 56.3398 136.917 52.4996 133.133 48.3812C129.348 44.2628 125.898 40.8679 125.453 40.7566C124.228 40.4227 122 43.2054 119.663 46.656C116.49 51.3866 112.706 59.1781 108.087 70.6985C93.1157 107.764 82.2631 128.189 66.7913 148.058C62.1164 154.124 52.5438 163.752 47.535 167.481C41.8583 171.711 32.5084 176.163 25.162 178.111C19.2627 179.669 18.6505 179.725 13.5303 179.224C8.85538 178.779 7.79795 178.501 5.85006 177.109C2.45516 174.66 0.395958 170.264 0.0620335 164.865C-0.271891 159.411 0.674228 157.074 4.57002 153.567C10.3024 148.392 12.9181 142.214 20.7654 114.888C29.4474 84.6677 33.0093 74.7056 40.8565 58.7329C46.1993 47.8247 50.3733 40.7566 55.6048 33.6886Z" fill="white" style="fill:white;fill-opacity:1;"/>
<path fill-rule="evenodd" clip-rule="evenodd" d="M214.94 162.5C214.775 162.933 214.608 163.37 214.442 163.808C212.995 167.481 210.769 172.267 209.434 174.493C203.479 184.066 190.734 192.97 178.601 195.976C173.481 197.256 172.368 197.311 147.157 197.478C109.479 197.757 107.921 197.478 91.2243 188.073C85.4363 184.845 79.5926 179.001 76.476 173.38C75.2516 171.265 72.9698 166.535 71.3001 162.806C64.3402 169.851 46.658 180.768 38.6868 185.346C39.0207 185.346 40.5791 185.735 42.1374 186.181L42.2048 186.202C44.9766 187.071 45.0314 187.088 45.0314 189.242C45.0314 190.967 44.8088 191.468 44.0853 191.468C43.2505 191.468 43.2505 191.523 44.0296 192.136C44.5305 192.581 45.3097 194.974 45.8662 197.868C49.0385 214.397 54.8822 217.959 72.1349 213.896L78.4795 212.394L83.5997 213.618C90.1112 215.176 92.1704 215.176 97.9584 213.451C103.246 211.837 104.359 212.004 107.976 214.898C112.651 218.627 116.547 218.961 125.229 216.568C128.401 215.677 132.575 214.62 134.523 214.23C139.365 213.34 147.101 213.896 153.557 215.677C165.912 219.017 168.083 218.905 174.427 214.564C176.486 213.173 178.657 212.06 179.38 212.06C180.048 212.06 182.72 212.672 185.28 213.451C190.901 215.121 192.737 215.176 197.969 213.729C203.089 212.282 205.927 212.338 211.604 213.841C214.943 214.787 217.726 215.121 222.067 215.121C227.633 215.121 228.078 215.009 230.638 213.451C234.311 211.169 236.537 206.995 238.596 198.425C239.125 196.364 239.707 190.999 239.932 188.574L240.099 186.181L246.499 184.4C240.126 180.933 224.892 171.7 214.94 162.5ZM253.142 182.581C253.139 182.581 253.137 182.582 253.134 182.583L253.142 182.581Z" fill="white" style="fill:white;fill-opacity:1;"/>
<path fill-rule="evenodd" clip-rule="evenodd" d="M107.736 153.301L102.276 165.273C101.482 167.015 103.552 168.594 105.04 167.537C106.729 166.339 108.683 165.024 110.851 163.681C111.242 163.438 111.528 163.056 111.649 162.609L113.192 156.872L114.229 159.364C114.643 160.361 115.825 160.77 116.767 160.267C119.54 158.785 122.518 157.361 125.628 156.114C126.156 155.902 126.559 155.455 126.708 154.899L127.675 151.308L128.483 153.251C128.848 154.129 129.823 154.568 130.717 154.285C134.2 153.181 137.784 152.359 141.379 151.966C142.025 151.895 142.593 151.486 142.856 150.88L143.914 148.435C144.876 149.634 146.907 148.984 146.907 147.361V139.459C146.907 138.46 146.091 137.635 145.074 137.655C127.729 137.993 113.371 147.713 108.122 152.754C107.953 152.917 107.827 153.103 107.736 153.301Z" fill="white" style="fill:white;fill-opacity:1;"/>
<path fill-rule="evenodd" clip-rule="evenodd" d="M180.834 153.301L186.294 165.273C187.088 167.015 185.018 168.594 183.53 167.537C181.842 166.339 179.887 165.024 177.72 163.681C177.329 163.438 177.042 163.056 176.922 162.609L175.378 156.872L174.342 159.364C173.927 160.361 172.745 160.77 171.803 160.267C169.031 158.785 166.053 157.361 162.943 156.114C162.414 155.902 162.012 155.455 161.862 154.899L160.896 151.308L160.087 153.251C159.722 154.129 158.747 154.568 157.854 154.285C154.37 153.181 150.786 152.359 147.191 151.966C146.545 151.895 145.977 151.486 145.714 150.88L144.656 148.435C143.694 149.634 141.663 148.984 141.663 147.361V139.459C141.663 138.46 142.479 137.635 143.496 137.655C160.841 137.993 175.2 147.713 180.448 152.754C180.618 152.917 180.743 153.103 180.834 153.301Z" fill="white" style="fill:white;fill-opacity:1;"/>
</svg>
