<svg width="68" height="45" viewBox="0 0 68 45" fill="none" xmlns="http://www.w3.org/2000/svg">
<path d="M35.793 36.6094L30.1777 38.7578C29.8685 38.8717 29.5918 38.7985 29.3477 38.5381C29.1198 38.2939 29.071 38.0254 29.2012 37.7324L31.5205 32.3125L57.4971 6.36035L61.7695 10.6572L35.793 36.6094ZM63.918 8.55762L59.5723 4.26074L62.0625 1.81934C62.681 1.21712 63.3076 0.891602 63.9424 0.842773C64.5934 0.793945 65.1956 1.04622 65.749 1.59961L66.5791 2.42969C67.1488 2.99935 67.4092 3.60156 67.3604 4.23633C67.3278 4.87109 67.0023 5.50586 66.3838 6.14062L63.918 8.55762ZM1.17383 38.2207C0.636719 36.4303 0.498372 34.8027 0.758789 33.3379C1.03548 31.8568 1.59701 30.514 2.44336 29.3096C3.28971 28.0889 4.32324 26.9821 5.54395 25.9893C6.76465 24.9801 8.06673 24.0605 9.4502 23.2305C10.8337 22.3841 12.1846 21.5947 13.5029 20.8623C15.749 19.609 17.4743 18.5674 18.6787 17.7373C19.8831 16.9072 20.6807 16.1748 21.0713 15.54C21.4619 14.889 21.5514 14.2217 21.3398 13.5381C21.1771 12.9847 20.6644 12.6104 19.8018 12.415C18.9391 12.2035 17.8486 12.1465 16.5303 12.2441C15.2282 12.3255 13.8122 12.5534 12.2822 12.9277C10.7686 13.3021 9.25488 13.7985 7.74121 14.417C6.22754 15.0355 4.84408 15.7598 3.59082 16.5898C3.16764 16.8828 2.76074 16.9805 2.37012 16.8828C1.99577 16.7689 1.69466 16.5492 1.4668 16.2236C1.25521 15.8981 1.17383 15.54 1.22266 15.1494C1.27148 14.7588 1.51562 14.4251 1.95508 14.1484C3.68034 12.9928 5.49512 12.0407 7.39941 11.292C9.31999 10.527 11.1999 9.98177 13.0391 9.65625C14.8945 9.31445 16.6035 9.20052 18.166 9.31445C19.7448 9.41211 21.0632 9.74577 22.1211 10.3154C23.179 10.8688 23.8708 11.6663 24.1963 12.708C24.6357 14.2217 24.5299 15.5726 23.8789 16.7607C23.2441 17.9489 22.2513 19.0394 20.9004 20.0322C19.5495 21.0251 18.0277 21.9854 16.335 22.9131C14.6585 23.8245 12.9821 24.7604 11.3057 25.7207C9.64551 26.6647 8.16439 27.6982 6.8623 28.8213C5.56022 29.9281 4.62435 31.1813 4.05469 32.5811C3.48503 33.9645 3.47689 35.5596 4.03027 37.3662C4.40462 38.6195 5.21842 39.596 6.47168 40.2959C7.72493 40.9958 9.28743 41.3945 11.1592 41.4922C13.0472 41.6061 15.1305 41.4108 17.4092 40.9062C19.7041 40.4017 22.0804 39.5798 24.5381 38.4404L25.8076 41.126C22.8942 42.4769 20.0785 43.4128 17.3604 43.9336C14.6423 44.4707 12.1602 44.609 9.91406 44.3486C7.68424 44.1045 5.80436 43.4697 4.27441 42.4443C2.74447 41.4189 1.71094 40.0111 1.17383 38.2207Z" fill="white" style="fill:white;fill-opacity:1;"/>
</svg>
